<svg width="24" height="24" viewBox="0 0 24 24" fill="none" xmlns="http://www.w3.org/2000/svg">
<path opacity="0.4" d="M20.5 10.19H17.61C15.24 10.19 13.31 8.26 13.31 5.89V3C13.31 2.45 12.86 2 12.31 2H8.07C4.99 2 2.5 4 2.5 7.57V16.43C2.5 20 4.99 22 8.07 22H15.93C19.01 22 21.5 20 21.5 16.43V11.19C21.5 10.64 21.05 10.19 20.5 10.19Z" fill="#BE8D9F"/>
<path d="M15.8002 2.20999C15.3902 1.79999 14.6802 2.07999 14.6802 2.64999V6.13999C14.6802 7.59999 15.9202 8.80999 17.4302 8.80999C18.3802 8.81999 19.7002 8.81999 20.8302 8.81999C21.4002 8.81999 21.7002 8.14999 21.3002 7.74999C19.8602 6.29999 17.2802 3.68999 15.8002 2.20999Z" fill="#BE8D9F"/>
<path d="M8 8C3.58 8 0 11.58 0 16C0 17.5 0.419973 18.92 1.15997 20.12C2.53997 22.44 5.08 24 8 24C10.92 24 13.46 22.44 14.84 20.12C15.58 18.92 16 17.5 16 16C16 11.58 12.42 8 8 8ZM11.94 15.34L7.67999 19.28C7.39999 19.54 7.01997 19.6801 6.65997 19.6801C6.27997 19.6801 5.89998 19.54 5.59998 19.24L3.62 17.26C3.04 16.68 3.04 15.72 3.62 15.14C4.2 14.56 5.15999 14.56 5.73999 15.14L6.70001 16.1L9.90002 13.14C10.5 12.58 11.46 12.62 12.02 13.22C12.58 13.82 12.54 14.78 11.94 15.34Z" fill="#BE8D9F"/>
</svg>
