<svg width="24" height="24" viewBox="0 0 24 24" fill="none" xmlns="http://www.w3.org/2000/svg">
<path opacity="0.4" d="M20.5 10.19H17.61C15.24 10.19 13.31 8.26 13.31 5.89V3C13.31 2.45 12.86 2 12.31 2H8.07C4.99 2 2.5 4 2.5 7.57V16.43C2.5 20 4.99 22 8.07 22H15.93C19.01 22 21.5 20 21.5 16.43V11.19C21.5 10.64 21.05 10.19 20.5 10.19Z" fill="#7C7FC2"/>
<path d="M15.8002 2.20999C15.3902 1.79999 14.6802 2.07999 14.6802 2.64999V6.13999C14.6802 7.59999 15.9202 8.80999 17.4302 8.80999C18.3802 8.81999 19.7002 8.81999 20.8302 8.81999C21.4002 8.81999 21.7002 8.14999 21.3002 7.74999C19.8602 6.29999 17.2802 3.68999 15.8002 2.20999Z" fill="#7C7FC2"/>
<path fill-rule="evenodd" clip-rule="evenodd" d="M7.32821 2.66194C4.5591 3.30436 2.5 5.78342 2.5 8.75C2.5 9.16421 2.16421 9.5 1.75 9.5C1.33579 9.5 1 9.16421 1 8.75C1 4.46579 4.46579 1 8.75 1C9.0202 1 9.26952 1.14534 9.40265 1.38047C9.53578 1.6156 9.53214 1.90417 9.39312 2.13587L8.34313 3.88587C8.13002 4.24105 7.66933 4.35623 7.31414 4.14312C6.95896 3.93001 6.84378 3.46932 7.05689 3.11413L7.32821 2.66194ZM21.75 14C22.1642 14 22.5 14.3358 22.5 14.75C22.5 19.0342 19.0342 22.5 14.75 22.5C14.4798 22.5 14.2305 22.3547 14.0974 22.1195C13.9642 21.8844 13.9679 21.5958 14.1069 21.3641L15.1569 19.6141C15.37 19.2589 15.8307 19.1438 16.1859 19.3569C16.541 19.57 16.6562 20.0307 16.4431 20.3859L16.1718 20.8381C18.9409 20.1956 21 17.7166 21 14.75C21 14.3358 21.3358 14 21.75 14Z" fill="#7C7FC2"/>
</svg>
