<svg width="32" height="32" viewBox="0 0 32 32" fill="none" xmlns="http://www.w3.org/2000/svg">
<path opacity="0.4" d="M28.3337 12.1999C25.2537 7.35991 20.747 4.57324 16.0003 4.57324C13.627 4.57324 11.3203 5.26658 9.21366 6.55991C7.10699 7.86658 5.21366 9.77324 3.66699 12.1999C2.33366 14.2932 2.33366 17.6932 3.66699 19.7866C6.74699 24.6399 11.2537 27.4132 16.0003 27.4132C18.3737 27.4132 20.6803 26.7199 22.787 25.4266C24.8937 24.1199 26.787 22.2132 28.3337 19.7866C29.667 17.7066 29.667 14.2932 28.3337 12.1999ZM16.0003 21.3866C13.0137 21.3866 10.6137 18.9732 10.6137 15.9999C10.6137 13.0266 13.0137 10.6132 16.0003 10.6132C18.987 10.6132 21.387 13.0266 21.387 15.9999C21.387 18.9732 18.987 21.3866 16.0003 21.3866Z" fill="#97B06A"/>
<path d="M16.0003 10.6665C14.3292 10.6665 12.824 11.4487 11.8522 12.6576C11.1055 13.5702 10.667 14.7317 10.667 15.9998C10.667 18.9509 13.0611 21.3332 16.0003 21.3332C18.3233 21.3332 20.3025 19.8517 21.0255 17.7776C21.227 17.2206 21.3337 16.628 21.3337 15.9998C21.3337 13.0606 18.9514 10.6665 16.0003 10.6665ZM19.1529 18.3228C19.1173 18.3939 19.0699 18.4769 19.0107 18.5362L18.0507 19.4843C17.9322 19.6147 17.7662 19.6739 17.6003 19.6739C17.4225 19.6739 17.2566 19.6147 17.1381 19.4843C16.9248 19.2828 16.9011 18.9628 17.0314 18.7257H14.3529C13.4996 18.7257 12.8003 18.0265 12.8003 17.1613V17.0309C12.8003 16.6635 13.0966 16.3791 13.4521 16.3791C13.8077 16.3791 14.1041 16.6635 14.1041 17.0309V17.1613C14.1041 17.3035 14.2107 17.4221 14.3529 17.4221H17.0314C16.9011 17.1732 16.9248 16.865 17.1381 16.6517C17.387 16.4028 17.8018 16.4028 18.0507 16.6517L19.0107 17.6117C19.0699 17.6709 19.1173 17.742 19.1529 17.825C19.2121 17.9791 19.2121 18.1569 19.1529 18.3228ZM19.2003 14.9687C19.2003 15.3361 18.9041 15.6206 18.5485 15.6206C18.1929 15.6206 17.8966 15.3361 17.8966 14.9687V14.8384C17.8966 14.6962 17.79 14.5776 17.6478 14.5776H14.9692C15.0996 14.8265 15.0759 15.1347 14.8625 15.348C14.744 15.4665 14.5781 15.5376 14.4004 15.5376C14.2344 15.5376 14.0685 15.4665 13.95 15.348L12.99 14.388C12.9307 14.3287 12.8833 14.2576 12.8478 14.1747C12.7885 14.0206 12.7885 13.8428 12.8478 13.6768C12.8833 13.6057 12.9307 13.5228 12.99 13.4635L13.95 12.5154C14.1989 12.2546 14.6136 12.2546 14.8625 12.5154C15.0759 12.7169 15.0996 13.0369 14.9692 13.2739H17.6478C18.5011 13.2739 19.2003 13.9732 19.2003 14.8384V14.9687Z" fill="#97B06A"/>
</svg>
