<svg width="24" height="24" viewBox="0 0 24 24" fill="none" xmlns="http://www.w3.org/2000/svg">
<path opacity="0.4" d="M20.5 10.19H17.61C15.24 10.19 13.31 8.26 13.31 5.89V3C13.31 2.45 12.86 2 12.31 2H8.07C4.99 2 2.5 4 2.5 7.57V16.43C2.5 20 4.99 22 8.07 22H15.93C19.01 22 21.5 20 21.5 16.43V11.19C21.5 10.64 21.05 10.19 20.5 10.19Z" fill="#FA9043"/>
<path d="M15.7997 2.20999C15.3897 1.79999 14.6797 2.07999 14.6797 2.64999V6.13999C14.6797 7.59999 15.9197 8.80999 17.4297 8.80999C18.3797 8.81999 19.6997 8.81999 20.8297 8.81999C21.3997 8.81999 21.6997 8.14999 21.2997 7.74999C19.8597 6.29999 17.2797 3.68999 15.7997 2.20999Z" fill="#FA9043"/>
<path d="M15.7156 14.2085C15.3962 13.7547 14.8584 13.5026 14.2197 13.5026H10.9421C10.7236 13.5026 10.5219 13.4185 10.3874 13.2504C10.253 13.0824 10.1857 12.8639 10.2193 12.6285L10.6227 10.0065C10.7908 9.23332 10.2698 8.34246 9.49659 8.09034C8.77384 7.82141 7.91663 8.19117 7.58047 8.69541L4.31969 13.5361V12.9311C4.31969 11.7545 3.81544 11.2671 2.57164 11.2671H1.74806C0.504257 11.2671 0 11.7545 0 12.9311V20.9654C0 22.142 0.504257 22.6294 1.74806 22.6294H2.57164C3.7482 22.6294 4.25244 22.1755 4.30287 21.0998L6.77366 22.9991C7.10982 23.3353 7.86619 23.5202 8.40405 23.5202H11.5136C12.5893 23.5202 13.665 22.7134 13.9003 21.7217L15.8668 15.738C16.0854 15.2001 16.0349 14.6455 15.7156 14.2085Z" fill="#FA9043"/>
</svg>
