<svg width="24" height="25" viewBox="0 0 24 25" fill="none" xmlns="http://www.w3.org/2000/svg">
<path opacity="0.4" d="M20.5 10.19H17.61C15.24 10.19 13.31 8.26 13.31 5.89V3C13.31 2.45 12.86 2 12.31 2H8.07C4.99 2 2.5 4 2.5 7.57V16.43C2.5 20 4.99 22 8.07 22H15.93C19.01 22 21.5 20 21.5 16.43V11.19C21.5 10.64 21.05 10.19 20.5 10.19Z" fill="#FA9043"/>
<path d="M15.7997 2.20999C15.3897 1.79999 14.6797 2.07999 14.6797 2.64999V6.13999C14.6797 7.59999 15.9197 8.80999 17.4297 8.80999C18.3797 8.81999 19.6997 8.81999 20.8297 8.81999C21.3997 8.81999 21.6997 8.14999 21.2997 7.74999C19.8597 6.29999 17.2797 3.68999 15.7997 2.20999Z" fill="#FA9043"/>
<path d="M14.6134 9.39166C12.7885 7.55656 11.0043 7.51578 9.12846 9.39166L7.97642 10.5335C7.87447 10.6355 7.84388 10.7782 7.88466 10.9107C8.59832 13.4085 10.5965 15.4067 13.0943 16.1204C13.1249 16.1306 13.1759 16.1306 13.2065 16.1306C13.3084 16.1306 13.4104 16.0898 13.4817 16.0184L14.6134 14.8766C15.5411 13.9488 15.9999 13.0619 15.9999 12.1545C15.9999 11.237 15.5411 10.3296 14.6134 9.39166Z" fill="#FA9043"/>
<path d="M11.3915 16.9784C11.1162 16.8459 10.8511 16.7133 10.6065 16.5604C10.4026 16.4381 10.1987 16.3055 10.005 16.1628C9.84184 16.0608 9.65833 15.9079 9.47482 15.755C9.45443 15.7448 9.39326 15.6938 9.3117 15.6123C8.99565 15.3574 8.65922 15.0107 8.34317 14.6335C8.32278 14.6131 8.26161 14.552 8.21064 14.4602C8.10869 14.3481 7.95576 14.1544 7.82323 13.9403C7.71108 13.7975 7.57855 13.5936 7.45621 13.3795C7.30328 13.1247 7.17075 12.8698 7.04841 12.6047C6.91587 12.3193 6.81392 12.0542 6.72216 11.7993L1.23724 17.2842C0.880419 17.6411 0.533788 18.3139 0.462422 18.8135L0.0240368 21.8516C-0.0677183 22.4939 0.105597 23.0954 0.503203 23.493C0.839638 23.8294 1.29841 24.0028 1.80817 24.0028C1.92031 24.0028 2.03246 23.9926 2.1446 23.9824L5.17252 23.5542C5.67208 23.4828 6.34495 23.1464 6.70177 22.7794L12.1867 17.2944C11.9318 17.2129 11.6769 17.1007 11.3915 16.9784Z" fill="#FA9043"/>
</svg>
