<svg width="24" height="24" viewBox="0 0 24 24" fill="none" xmlns="http://www.w3.org/2000/svg">
<path opacity="0.4" d="M20.0402 6.82018L14.2802 2.79018C12.7102 1.69018 10.3002 1.75018 8.79023 2.92018L3.78023 6.83018C2.78023 7.61018 1.99023 9.21018 1.99023 10.4702V17.3702C1.99023 19.9202 4.06023 22.0002 6.61023 22.0002H17.3902C19.9402 22.0002 22.0102 19.9302 22.0102 17.3802V10.6002C22.0102 9.25018 21.1402 7.59018 20.0402 6.82018Z" fill="#FA8735"/>
<path d="M16.5 15.124H13.5C13.295 15.124 13.125 14.954 13.125 14.749C13.125 14.544 13.295 14.374 13.5 14.374H16.5C16.705 14.374 16.875 14.544 16.875 14.749C16.875 14.954 16.705 15.124 16.5 15.124Z" fill="#FA8735"/>
<path d="M16.5 17.124H13.5C13.295 17.124 13.125 16.954 13.125 16.749C13.125 16.544 13.295 16.374 13.5 16.374H16.5C16.705 16.374 16.875 16.544 16.875 16.749C16.875 16.954 16.705 17.124 16.5 17.124Z" fill="#FA8735"/>
<path opacity="0.4" d="M17 11.259V8.98902C17 8.28402 16.68 7.99902 15.885 7.99902H13.865C13.07 7.99902 12.75 8.28402 12.75 8.98902V11.254C12.75 11.964 13.07 12.244 13.865 12.244H15.885C16.68 12.249 17 11.964 17 11.259Z" fill="#FA8735"/>
<path d="M11.25 11.259V8.98902C11.25 8.28402 10.93 7.99902 10.135 7.99902H8.115C7.32 7.99902 7 8.28402 7 8.98902V11.254C7 11.964 7.32 12.244 8.115 12.244H10.135C10.93 12.249 11.25 11.964 11.25 11.259Z" fill="#FA8735"/>
<path opacity="0.4" d="M11.25 16.884V14.864C11.25 14.069 10.93 13.749 10.135 13.749H8.115C7.32 13.749 7 14.069 7 14.864V16.884C7 17.679 7.32 17.999 8.115 17.999H10.135C10.93 17.999 11.25 17.679 11.25 16.884Z" fill="#FA8735"/>
</svg>
